<svg id="Layer_2" height="300" viewBox="0 0 512 512" width="300" xmlns="http://www.w3.org/2000/svg" data-name="Layer 2" version="1.1" xmlns:xlink="http://www.w3.org/1999/xlink" xmlns:svgjs="http://svgjs.dev/svgjs"><g transform="matrix(1,0,0,1,0,0)"><g id="Icon"><g id="_121" data-name="121"><path id="BG" d="m362 512h-212c-82.8 0-150-67.2-150-150v-212c0-82.8 67.2-150 150-150h212c82.8 0 150 67.2 150 150v212c0 82.8-67.2 150-150 150z" fill="#5facf1" fill-opacity="1" data-original-color="#007beaff" stroke="none" stroke-opacity="1"/><path d="m245.39 183.5-123.79 123.79c-9.45 9.45-2.76 25.61 10.61 25.61h247.57c13.36 0 20.06-16.16 10.61-25.61l-123.79-123.79c-5.86-5.86-15.36-5.86-21.21 0z" fill="#ffffff" fill-opacity="1" data-original-color="#ffffffff" stroke="none" stroke-opacity="1"/></g></g></g></svg>