<svg id="Layer_2" height="512" viewBox="0 0 512 512" width="512" xmlns="http://www.w3.org/2000/svg" data-name="Layer 2"><g id="Icon"><g id="_119" data-name="119"><g><path d="m225.63 204.2c-2.91 0-5.13-.87-6.68-2.61s-2.32-4.24-2.32-7.5h-11.88c0 5.62 1.54 10.12 4.62 13.5s7.43 5.38 13.05 5.98v8.14h6.54v-8.18c5.1-.52 9.1-2.23 12-5.14 2.9-2.9 4.36-6.69 4.36-11.35 0-2.49-.38-4.68-1.15-6.56s-1.88-3.55-3.33-5.01c-1.45-1.47-3.23-2.78-5.34-3.95-2.11-1.16-4.8-2.4-8.08-3.72-3.27-1.32-5.52-2.6-6.72-3.86-1.21-1.26-1.81-2.93-1.81-5.02 0-2.25.62-4.01 1.85-5.28s2.97-1.91 5.22-1.91 4.09.82 5.45 2.45 2.03 4.09 2.03 7.38h11.88c0-5.34-1.37-9.69-4.11-13.05s-6.54-5.38-11.39-6.06v-8.92h-6.58v8.8c-4.91.49-8.84 2.22-11.8 5.18s-4.44 6.76-4.44 11.39c0 2.69.43 5 1.29 6.95s2.07 3.64 3.62 5.08 3.4 2.71 5.57 3.82c2.16 1.11 4.74 2.23 7.73 3.35s5.1 2.35 6.35 3.68 1.87 3.12 1.87 5.36-.7 3.88-2.1 5.16c-1.4 1.27-3.3 1.91-5.71 1.91z"/><path d="m362 0h-212c-82.84 0-150 67.16-150 150v212c0 82.84 67.16 150 150 150h212c82.84 0 150-67.16 150-150v-212c0-82.84-67.16-150-150-150zm-136.97 122.88c32.99 0 59.74 26.74 59.74 59.74s-26.74 59.74-59.74 59.74-59.74-26.74-59.74-59.74 26.74-59.74 59.74-59.74zm138.35 229.93c0 3.61-2.93 6.54-6.54 6.54-6.64 0-13.21 1.41-19.27 4.14l-38.45 17.34c-24.36 10.98-52.25 11.05-76.67.18l-140.07-62.36c-10.84-4.83-15.71-17.53-10.89-28.37 5.29-10.58 18.46-15.3 29.26-10.49l85.87 38.23c-2.77-3.8-4.34-8.53-4.1-13.66.54-11.54 10.39-20.46 21.94-20.46h71.34c6.72 0 13.12-2.89 17.57-7.93l26.2-29.68c8.9-10.08 21.7-15.85 35.14-15.85h2.11c3.61 0 6.54 2.93 6.54 6.54v115.82zm78.97 8.49c0 12.94-10.49 23.44-23.44 23.44h-23.44c-12.94 0-23.44-10.49-23.44-23.44v-132.81c0-12.94 10.49-23.44 23.44-23.44h23.44c12.94 0 23.44 10.49 23.44 23.44z"/></g></g></g></svg>