<svg enable-background="new 0 0 32 32" height="300" viewBox="0 0 32 32" width="300" xmlns="http://www.w3.org/2000/svg" version="1.1" xmlns:xlink="http://www.w3.org/1999/xlink" xmlns:svgjs="http://svgjs.dev/svgjs"><g transform="matrix(1,0,0,1,0,0)"><g id="Guide"><path d="m-220-136h346v220h-346z" fill="#ffffff" fill-opacity="0" data-original-color="#ffffffff" stroke="none" stroke-opacity="1"/></g><g id="Line" display="none"><g display="inline"><circle cx="16" cy="16" r="15" style="stroke-linecap: round; stroke-linejoin: round; stroke-miterlimit: 10;" fill="none" fill-opacity="1" stroke="#111111" stroke-opacity="1" data-original-stroke-color="#111111ff" stroke-width="2" data-original-stroke-width="2"/><g><g style="fill:none;stroke:#111;stroke-width:2;stroke-linecap:round;stroke-linejoin:round;stroke-miterlimit:10"><path d="m22 20 4-4-4-4" fill="none" fill-opacity="1" stroke="#111111" stroke-opacity="1" data-original-stroke-color="#111111ff" stroke-width="2" data-original-stroke-width="2"/><path d="m26 16h-20" fill="none" fill-opacity="1" stroke="#111111" stroke-opacity="1" data-original-stroke-color="#111111ff" stroke-width="2" data-original-stroke-width="2"/></g></g></g></g><g id="Line_Expand"><g fill="#111"><path d="m16 0c-8.82 0-16 7.18-16 16s7.18 16 16 16 16-7.18 16-16-7.18-16-16-16zm0 30c-7.72 0-14-6.28-14-14s6.28-14 14-14 14 6.28 14 14-6.28 14-14 14z" fill="#111111" fill-opacity="1" data-original-color="#111111ff" stroke="none" stroke-opacity="1"/><path d="m26.71 15.29-4-4c-.39-.39-1.02-.39-1.41 0s-.39 1.02 0 1.41l2.29 2.3h-17.59c-.55 0-1 .45-1 1s.45 1 1 1h17.59l-2.29 2.29c-.39.39-.39 1.02 0 1.41.19.2.44.3.7.3s.51-.1.71-.29l4-4c.39-.39.39-1.03 0-1.42z" fill="#111111" fill-opacity="1" data-original-color="#111111ff" stroke="none" stroke-opacity="1"/></g></g></g></svg>