<svg id="Solid" height="512" viewBox="0 0 512 512" width="512" xmlns="http://www.w3.org/2000/svg"><path d="m252.686 120 32-32h-228.686c-3.262 0-8 6.233-8 16s4.738 16 8 16z"/><path d="m290.11 181.826a35.227 35.227 0 0 1 -51.897-45.826h-168.235l-37.3 126.271a24.077 24.077 0 0 0 -.678 5.668v220.061h264v-220.061a40.073 40.073 0 0 1 1.193-9.7c.028-.109.058-.219.09-.328l31.317-106.022zm-130.11 114.174h-.015a7.974 7.974 0 0 1 -.83 3.578l-15.019 30.039 6.619 92.673a24 24 0 0 1 -23.939 25.71h-13.632a24 24 0 0 1 -23.939-25.71l6.619-92.673-15.019-30.039a7.974 7.974 0 0 1 -.83-3.578h-.015v-32a8 8 0 0 1 16 0v24h16v-24a8 8 0 0 1 16 0v24h16v-24a8 8 0 0 1 16 0zm72.115 144.1a24.043 24.043 0 0 1 -17.8 7.9h-12.635a24 24 0 0 1 -23.88-26.388l6.2-62.012v-2.66l-11.578-5.789a8 8 0 0 1 -4.4-7.754c.268-3.564 7.118-87.397 55.978-87.397a8 8 0 0 1 8 8v95.6l6.2 62.008a24.038 24.038 0 0 1 -6.085 18.492z"/><path d="m432 24h48v88h-48z"/><path d="m235.945 43.324-52.571 28.676h120.626a8 8 0 0 1 5.657 13.657l-54.768 54.769a19.226 19.226 0 0 0 25.4 28.771l49.927-38.832a11.282 11.282 0 0 1 6.891-2.365h19.666a27.258 27.258 0 0 0 27.227-27.227 12.788 12.788 0 0 1 12.773-12.773h19.227v-48h-167.018a27.3 27.3 0 0 0 -13.037 3.324z"/><path d="m128.551 336h-17.1l-6.251 87.431a8 8 0 0 0 7.98 8.569h13.632a8 8 0 0 0 7.98-8.569z"/><path d="m200 352h16v-78.542c-9.86 3.757-17.938 14.762-24.086 32.853a175.605 175.605 0 0 0 -7.365 33.019l11.029 5.515a8 8 0 0 1 4.422 7.155z"/><path d="m108.944 320h22.112l8-16h-38.112z"/><path d="m323.314 488h41.372l-20.686-20.686z"/><path d="m216.76 368h-17.52l-5.521 55.2a8 8 0 0 0 7.961 8.8h12.64a8 8 0 0 0 7.961-8.8z"/><path d="m312.679 262.271a24.077 24.077 0 0 0 -.679 5.668v208.747l24-24v-172.686a8 8 0 0 1 16 0v172.686l24 24v-208.078a23.947 23.947 0 0 0 -.975-6.769l-31.042-105.544z"/></svg>